<svg width="61" height="61" viewBox="0 0 61 61" fill="none" xmlns="http://www.w3.org/2000/svg">
<circle cx="30.5" cy="30.5" r="30.5" fill="#5640AC"/>
<path d="M21.8948 32.6842V23.4211C21.8948 22.7511 22.1609 22.1085 22.6347 21.6347C23.1085 21.1609 23.7511 20.8948 24.4211 20.8948C25.0911 20.8948 25.7337 21.1609 26.2075 21.6347C26.6812 22.1085 26.9474 22.7511 26.9474 23.4211V32.6842" stroke="white" stroke-width="4" stroke-linecap="round" stroke-linejoin="round"/>
<path d="M42.1053 31.8422V37.3158C42.1053 42.6641 37.7693 47.0001 32.4211 47.0001H31.579C26.2308 47.0001 21.8948 42.6641 21.8948 37.3158V31.8422" stroke="white" stroke-width="4" stroke-linecap="round" stroke-linejoin="round"/>
<path d="M26.9474 35.2105V30.9999C26.9474 30.3299 27.2136 29.6873 27.6873 29.2136C28.1611 28.7398 28.8037 28.4736 29.4737 28.4736C30.1437 28.4736 30.7863 28.7398 31.2601 29.2136C31.7339 29.6873 32 30.3299 32 30.9999M32 30.9999V35.2105M32 30.9999C32 30.3299 32.2662 29.6873 32.74 29.2136C33.2137 28.7398 33.8563 28.4736 34.5263 28.4736C35.1964 28.4736 35.8389 28.7398 36.3127 29.2136C36.7865 29.6873 37.0527 30.3299 37.0527 30.9999M37.0527 30.9999V35.2105M37.0527 30.9999C37.0527 30.3299 37.3188 29.6873 37.7926 29.2136C38.2664 28.7398 38.9089 28.4736 39.579 28.4736C40.249 28.4736 40.8916 28.7398 41.3653 29.2136C41.8391 29.6873 42.1053 30.3299 42.1053 30.9999V35.2105" stroke="white" stroke-width="4" stroke-linecap="round" stroke-linejoin="round"/>
<path d="M32.8421 23.4211C32.8441 21.6184 32.2657 19.8631 31.1924 18.4147C30.4101 17.355 29.3897 16.4938 28.2135 15.9007C27.0374 15.3076 25.7383 14.9991 24.4211 15C23.1037 14.9989 21.8044 15.3074 20.6281 15.9005C19.4518 16.4937 18.4313 17.3549 17.6488 18.4147C16.576 19.8632 15.9978 21.6185 16 23.4211" stroke="white" stroke-width="4" stroke-linecap="round"/>
</svg>
