<svg width="61" height="61" viewBox="0 0 61 61" fill="none" xmlns="http://www.w3.org/2000/svg">
<path d="M61 30.5C61 47.3447 47.3447 61 30.5 61C13.6553 61 0 47.3447 0 30.5C0 13.6553 13.6553 0 30.5 0C47.3447 0 61 13.6553 61 30.5Z" fill="#00B9F9"/>
<path d="M23.7111 31.8889L24.8875 28.9514L26.0611 31.8889H23.7111ZM35.4444 30.5H36.8333V33.2778H35.4444C35.0761 33.2778 34.7228 33.1314 34.4623 32.871C34.2019 32.6105 34.0556 32.2572 34.0556 31.8889C34.0556 31.5205 34.2019 31.1673 34.4623 30.9068C34.7228 30.6463 35.0761 30.5 35.4444 30.5ZM42.3889 18H17.3889C17.0205 18 16.6673 18.1463 16.4068 18.4068C16.1463 18.6673 16 19.0205 16 19.3889V41.6111C16 41.9795 16.1463 42.3327 16.4068 42.5932C16.6673 42.8537 17.0205 43 17.3889 43H42.3889C42.7572 43 43.1105 42.8537 43.371 42.5932C43.6314 42.3327 43.7778 41.9795 43.7778 41.6111V19.3889C43.7778 19.0205 43.6314 18.6673 43.371 18.4068C43.1105 18.1463 42.7572 18 42.3889 18ZM30.7194 36.0556H27.7264L27.1708 34.6667H22.6014L22.0458 36.0556H19.0542L20.7194 31.8917L20.7208 31.8889L23.4986 24.9444H26.2764L30.7194 36.0556ZM36.8333 24.9444H39.6111V36.0556H35.4444C34.3394 36.0556 33.2796 35.6166 32.4982 34.8352C31.7168 34.0538 31.2778 32.994 31.2778 31.8889C31.2778 30.7838 31.7168 29.724 32.4982 28.9426C33.2796 28.1612 34.3394 27.7222 35.4444 27.7222H36.8333V24.9444Z" fill="white"/>
</svg>
