<svg width="61" height="61" viewBox="0 0 61 61" fill="none" xmlns="http://www.w3.org/2000/svg">
<circle cx="30.5" cy="30.5" r="30.5" fill="#6E68CF"/>
<path d="M17.8478 39.0482L20.8779 36.5056L21.2675 32.0478L27.3276 26.9628L33.9938 21.3697L36.4179 19.3352C36.9737 18.8582 37.6186 18.4963 38.3152 18.2703C39.0119 18.0442 39.7465 17.9587 40.4764 18.0185C41.2064 18.0783 41.9172 18.2824 42.5678 18.6188C43.2184 18.9552 43.7957 19.4174 44.2665 19.9784C44.7372 20.5395 45.092 21.1884 45.3102 21.8876C45.5284 22.5867 45.6058 23.3222 45.5379 24.0514C45.4699 24.7807 45.258 25.4892 44.9144 26.136C44.5707 26.7827 44.1022 27.3549 43.5359 27.8194L41.1126 29.8531L34.4464 35.4462L28.3862 40.5313L23.9307 40.144L20.9029 42.6843C20.4201 43.0893 19.7962 43.2859 19.1685 43.2309C18.5407 43.176 17.9605 42.8739 17.5554 42.3911C17.355 42.1524 17.2037 41.8765 17.1099 41.5793C17.0162 41.282 16.9819 40.9692 17.009 40.6587C17.0362 40.3482 17.1242 40.0461 17.2681 39.7696C17.4121 39.4931 17.609 39.2485 17.8478 39.0482Z" stroke="white" stroke-width="2" stroke-linejoin="round"/>
<path d="M30.7473 19.9624L41.9661 33.3297M27.0565 34.6055L31.4049 30.8084" stroke="white" stroke-width="2" stroke-linecap="round"/>
</svg>
