<svg width="19" height="23" viewBox="0 0 19 23" fill="none" xmlns="http://www.w3.org/2000/svg">
<path d="M9.35518 10.71C10.8265 10.71 12.1005 10.1823 13.1416 9.14111C14.1825 8.1001 14.7104 6.82636 14.7104 5.35483C14.7104 3.88381 14.1826 2.6099 13.1415 1.56855C12.1003 0.527714 10.8264 0 9.35518 0C7.88365 0 6.60991 0.527714 5.5689 1.56872C4.52788 2.60973 4 3.88364 4 5.35483C4 6.82636 4.52788 8.10027 5.5689 9.14128C6.61025 10.1821 7.88416 10.71 9.35518 10.71ZM6.49032 2.48998C7.2891 1.6912 8.22613 1.30292 9.35518 1.30292C10.4841 1.30292 11.4213 1.6912 12.2202 2.48998C13.019 3.28893 13.4074 4.22612 13.4074 5.35483C13.4074 6.48388 13.019 7.4209 12.2202 8.21985C11.4213 9.0188 10.4841 9.40708 9.35518 9.40708C8.22647 9.40708 7.28944 9.01863 6.49032 8.21985C5.69137 7.42107 5.30292 6.48388 5.30292 5.35483C5.30292 4.22612 5.69137 3.28893 6.49032 2.48998Z" fill="#BFBFBF"/>
<path d="M18.1442 17.233C18.1148 16.8082 18.0553 16.3448 17.9676 15.8555C17.8791 15.3625 17.7652 14.8965 17.6288 14.4705C17.4877 14.0303 17.2963 13.5955 17.0593 13.1789C16.8136 12.7464 16.5249 12.3699 16.2009 12.06C15.8621 11.7358 15.4473 11.4752 14.9676 11.2851C14.4896 11.096 13.9598 11.0002 13.3932 11.0002C13.1706 11.0002 12.9554 11.0915 12.5397 11.3621C12.2839 11.5289 11.9847 11.7218 11.6507 11.9352C11.3652 12.1172 10.9783 12.2877 10.5004 12.442C10.0342 12.5929 9.56086 12.6694 9.09349 12.6694C8.62645 12.6694 8.15309 12.5929 7.68655 12.442C7.20919 12.2879 6.82215 12.1174 6.53707 11.9354C6.20625 11.724 5.90687 11.5311 5.64723 11.3619C5.23192 11.0913 5.0167 11 4.79415 11C4.22732 11 3.69774 11.096 3.21989 11.2852C2.74054 11.475 2.32556 11.7357 1.98642 12.0602C1.66242 12.3702 1.37368 12.7466 1.12818 13.1789C0.891502 13.5955 0.699896 14.0301 0.558852 14.4707C0.422632 14.8967 0.308699 15.3625 0.220214 15.8555C0.132395 16.3442 0.0730167 16.8077 0.0435772 17.2335C0.0146366 17.6498 0 18.0831 0 18.5209C0 19.6589 0.361757 20.5801 1.07513 21.2596C1.77968 21.93 2.71176 22.27 3.8456 22.27H14.3427C15.4762 22.27 16.4083 21.93 17.113 21.2596C17.8266 20.5806 18.1883 19.659 18.1883 18.5207C18.1881 18.0814 18.1733 17.6482 18.1442 17.233ZM16.2322 20.334C15.7666 20.7771 15.1486 20.9925 14.3425 20.9925H3.8456C3.03942 20.9925 2.42136 20.7771 1.95598 20.3341C1.49942 19.8995 1.27754 19.3063 1.27754 18.5209C1.27754 18.1124 1.29102 17.709 1.31796 17.3218C1.34424 16.942 1.39796 16.5246 1.47763 16.0812C1.5563 15.6433 1.65643 15.2323 1.77552 14.8602C1.88979 14.5035 2.04563 14.1502 2.2389 13.8099C2.42336 13.4856 2.63559 13.2073 2.86977 12.9831C3.08882 12.7734 3.36492 12.6017 3.69025 12.473C3.99114 12.3539 4.32928 12.2887 4.69635 12.2789C4.7411 12.3027 4.82077 12.3481 4.94983 12.4322C5.21246 12.6034 5.51517 12.7986 5.84982 13.0124C6.22704 13.2529 6.71305 13.4701 7.29369 13.6575C7.8873 13.8495 8.49272 13.9469 9.09366 13.9469C9.69459 13.9469 10.3002 13.8495 10.8935 13.6577C11.4746 13.4699 11.9604 13.2529 12.3382 13.012C12.6806 12.7931 12.9749 12.6035 13.2375 12.4322C13.3665 12.3482 13.4462 12.3027 13.491 12.2789C13.8582 12.2887 14.1963 12.3539 14.4974 12.473C14.8226 12.6017 15.0987 12.7735 15.3177 12.9831C15.5519 13.2071 15.7641 13.4854 15.9486 13.8101C16.142 14.1502 16.298 14.5036 16.4121 14.8601C16.5314 15.2326 16.6317 15.6435 16.7102 16.0811C16.7897 16.5253 16.8436 16.9428 16.8699 17.322V17.3223C16.897 17.708 16.9106 18.1112 16.9108 18.5209C16.9106 19.3064 16.6887 19.8995 16.2322 20.334Z" fill="#BFBFBF"/>
</svg>
