<svg width="26" height="29" viewBox="0 0 26 29" fill="none" xmlns="http://www.w3.org/2000/svg">
<path d="M25.2233 19.74C23.7471 17.8785 21.2697 14.2195 21.2697 10.64C21.2697 7.09073 18.9894 3.89758 15.6697 2.72382C15.6294 1.21406 14.3885 0 12.8708 0C11.3521 0 10.1123 1.21406 10.0719 2.72382C6.75112 3.89758 4.47082 7.09073 4.47082 10.64C4.47082 14.2207 1.99451 17.8785 0.51724 19.74C0.0244509 20.3616 -0.127909 21.1825 0.110693 21.9363C0.343662 22.6721 0.923787 23.2422 1.663 23.4595C2.95772 23.8415 5.08009 24.2715 8.31694 24.491C9.71803 24.5851 11.2245 24.64 12.8709 24.64C14.5161 24.64 16.0226 24.5851 17.4237 24.491C20.6616 24.2715 22.7829 23.8415 24.0787 23.4595C24.8179 23.2422 25.3969 22.6722 25.6299 21.9363C25.8685 21.1825 25.715 20.3616 25.2233 19.74Z" fill="#BFBFBF"/>
<path d="M9 26C9.60813 27.3675 10.9566 28.3318 12.5481 28.3318C14.1397 28.3318 15.4881 27.3675 16.0963 26C14.9741 26.0549 13.807 26.0918 12.5481 26.0918C11.2893 26.0918 10.1222 26.0549 9 26Z" fill="#BFBFBF"/>
</svg>
