<svg width="30" height="28" viewBox="0 0 30 28" fill="none" xmlns="http://www.w3.org/2000/svg">
<path d="M13 18H7C6.20435 18 5.44129 18.3161 4.87868 18.8787C4.31607 19.4413 4 20.2044 4 21V23H6V21C6 20.7348 6.10536 20.4804 6.29289 20.2929C6.48043 20.1054 6.73478 20 7 20H13C13.2652 20 13.5196 20.1054 13.7071 20.2929C13.8946 20.4804 14 20.7348 14 21V23H16V21C16 20.2044 15.6839 19.4413 15.1213 18.8787C14.5587 18.3161 13.7956 18 13 18ZM10 17C10.7911 17 11.5645 16.7654 12.2223 16.3259C12.8801 15.8864 13.3928 15.2616 13.6955 14.5307C13.9983 13.7998 14.0775 12.9956 13.9231 12.2196C13.7688 11.4437 13.3878 10.731 12.8284 10.1716C12.269 9.61216 11.5563 9.2312 10.7804 9.07686C10.0044 8.92252 9.20017 9.00173 8.46927 9.30448C7.73836 9.60723 7.11365 10.1199 6.67412 10.7777C6.2346 11.4355 6 12.2089 6 13C6 14.0609 6.42143 15.0783 7.17157 15.8284C7.92172 16.5786 8.93913 17 10 17ZM10 11C10.3956 11 10.7822 11.1173 11.1111 11.3371C11.44 11.5568 11.6964 11.8692 11.8478 12.2346C11.9991 12.6001 12.0387 13.0022 11.9616 13.3902C11.8844 13.7781 11.6939 14.1345 11.4142 14.4142C11.1345 14.6939 10.7781 14.8844 10.3902 14.9616C10.0022 15.0387 9.60009 14.9991 9.23463 14.8478C8.86918 14.6964 8.55682 14.44 8.33706 14.1111C8.1173 13.7822 8 13.3956 8 13C8 12.4696 8.21071 11.9609 8.58579 11.5858C8.96086 11.2107 9.46957 11 10 11Z" fill="#BFBFBF"/>
<path d="M26 17V26H2V6H14V4H2C1.46957 4 0.960859 4.21071 0.585786 4.58579C0.210714 4.96086 0 5.46957 0 6V26C0 26.5304 0.210714 27.0391 0.585786 27.4142C0.960859 27.7893 1.46957 28 2 28H26C26.5304 28 27.0391 27.7893 27.4142 27.4142C27.7893 27.0391 28 26.5304 28 26V17H26Z" fill="#BFBFBF"/>
<path d="M18 17H24V19H18V17ZM20 21H24V23H20V21ZM30 8V6H27.899C27.77 5.37402 27.5215 4.77881 27.167 4.247L28.657 2.757L27.243 1.343L25.753 2.833C25.2212 2.47851 24.626 2.22997 24 2.101V0H22V2.101C21.374 2.22997 20.7788 2.47851 20.247 2.833L18.757 1.343L17.343 2.757L18.833 4.247C18.4785 4.77881 18.23 5.37402 18.101 6H16V8H18.101C18.23 8.62598 18.4785 9.22119 18.833 9.753L17.343 11.243L18.757 12.657L20.247 11.167C20.7788 11.5215 21.374 11.77 22 11.899V14H24V11.899C24.626 11.77 25.2212 11.5215 25.753 11.167L27.243 12.657L28.657 11.243L27.167 9.753C27.5215 9.22119 27.77 8.62598 27.899 8H30ZM23 10C22.4067 10 21.8266 9.82405 21.3333 9.49441C20.8399 9.16476 20.4554 8.69623 20.2284 8.14805C20.0013 7.59987 19.9419 6.99667 20.0576 6.41473C20.1734 5.83279 20.4591 5.29824 20.8787 4.87868C21.2982 4.45912 21.8328 4.1734 22.4147 4.05764C22.9967 3.94189 23.5999 4.0013 24.1481 4.22836C24.6962 4.45542 25.1648 4.83994 25.4944 5.33329C25.8241 5.82664 26 6.40666 26 7C25.9992 7.79541 25.6829 8.55801 25.1204 9.12044C24.558 9.68288 23.7954 9.99921 23 10Z" fill="#BFBFBF"/>
</svg>
