<svg width="24" height="24" viewBox="0 0 24 24" fill="none" xmlns="http://www.w3.org/2000/svg">
<path d="M20.5556 14H3.44444C2.09441 14 1 15.1513 1 16.5714V20.4286C1 21.8487 2.09441 23 3.44444 23H20.5556C21.9056 23 23 21.8487 23 20.4286V16.5714C23 15.1513 21.9056 14 20.5556 14Z" stroke="#BFBFBF" stroke-width="2"/>
<path d="M10 2H3.57143C2.88944 2 2.23539 2.24082 1.75315 2.66947C1.27092 3.09812 1 3.67951 1 4.28571V7.71429C1 8.3205 1.27092 8.90188 1.75315 9.33053C2.23539 9.75918 2.88944 10 3.57143 10H10" stroke="#BFBFBF" stroke-width="2" stroke-linecap="round"/>
<path d="M18 11C20.7614 11 23 8.76142 23 6C23 3.23858 20.7614 1 18 1C15.2386 1 13 3.23858 13 6C13 8.76142 15.2386 11 18 11Z" stroke="#BFBFBF" stroke-width="2"/>
<path d="M18 8C19.1046 8 20 7.10457 20 6C20 4.89543 19.1046 4 18 4C16.8954 4 16 4.89543 16 6C16 7.10457 16.8954 8 18 8Z" fill="#BFBFBF"/>
</svg>
