<svg width="61" height="61" viewBox="0 0 61 61" fill="none" xmlns="http://www.w3.org/2000/svg">
<path d="M61 30.5C61 47.3447 47.3447 61 30.5 61C13.6553 61 0 47.3447 0 30.5C0 13.6553 13.6553 0 30.5 0C47.3447 0 61 13.6553 61 30.5Z" fill="#4ED1FA"/>
<path d="M30 13C20.1 13 12 21.1 12 31C12 40.9 20.1 49 30 49C39.9 49 48 40.9 48 31C48 21.1 39.9 13 30 13ZM25.68 40.36C25.284 40.36 24.744 40.216 24.24 40L23.214 42.52L21.162 41.8L21.45 41.098C23.61 35.662 26.094 29.47 35.4 27.4C35.4 27.4 24.6 27.4 21.09 37.39C21.09 37.39 19.2 35.5 19.2 33.34C19.2 31.18 21.36 26.59 26.76 25.51C28.29 25.204 30 24.97 31.692 24.7C35.94 24.124 40.026 23.548 40.8 22C40.8 22 37.56 40.36 25.68 40.36Z" fill="white"/>
</svg>
