<svg width="218" height="135" viewBox="0 0 218 135" fill="none" xmlns="http://www.w3.org/2000/svg">
<path d="M0 114.264L1.50694 114.525C3.01389 114.787 6.02778 115.311 9.04167 113.37C12.0556 111.428 15.0694 107.023 18.0833 110.312C21.0972 113.602 24.1111 124.587 27.125 114.687C30.1389 104.786 33.1528 73.9995 36.1667 72.7313C39.1806 71.4631 42.1944 99.7132 45.2083 107.226C48.2222 114.738 51.2361 101.512 54.25 105.969C57.2639 110.426 60.2778 132.565 63.2917 122.009C66.3055 111.453 69.3194 68.2016 72.3333 56.0072C75.3472 43.8128 78.3611 62.6751 81.375 61.2729C84.3889 59.8707 87.4028 38.204 90.4167 42.4853C93.4305 46.7667 96.4444 76.9961 99.4583 76.5323C102.472 76.0685 105.486 44.9115 108.5 47.7445C111.514 50.5775 114.528 87.4004 117.542 93.5504C120.556 99.7004 123.569 75.1774 126.583 68.3107C129.597 61.444 132.611 72.2335 135.625 75.0866C138.639 77.9397 141.653 72.8564 144.667 73.7312C147.681 74.606 150.694 81.439 153.708 90.3866C156.722 99.3342 159.736 110.396 162.75 113.495C165.764 116.594 168.778 111.729 171.792 96.1458C174.806 80.5627 177.819 54.2612 180.833 39.4043C183.847 24.5474 186.861 21.1351 189.875 15.9037C192.889 10.6722 212.986 -4.96198 216 2.99997C216.893 4.87436 217.135 7.45291 217 10.4354V135H0V114.264Z" fill="url(#paint0_linear_191_470)"/>
<defs>
<linearGradient id="paint0_linear_191_470" x1="108.5" y1="8" x2="108.5" y2="135" gradientUnits="userSpaceOnUse">
<stop stop-color="#3F189B"/>
<stop offset="1" stop-color="white"/>
</linearGradient>
</defs>
</svg>
